<?xml version="1.0" encoding="iso-8859-1"?>
<!-- Generator: Adobe Illustrator 19.0.0, SVG Export Plug-In . SVG Version: 6.00 Build 0)  -->
<svg version="1.1" id="Layer_1" xmlns="http://www.w3.org/2000/svg" xmlns:xlink="http://www.w3.org/1999/xlink" x="0px" y="0px"
	 viewBox="0 0 512 512" style="enable-background:new 0 0 512 512;" xml:space="preserve">
<rect x="136.923" style="fill:#F9B233;" width="239.073" height="24"/>
<rect x="15.999" y="335.997" style="fill:#D5C9B3;" width="479.995" height="176.003"/>
<g>
	<rect x="15.999" y="463.997" style="fill:#ED7149;" width="88.555" height="48.001"/>
	<rect x="408.001" y="463.997" style="fill:#ED7149;" width="87.855" height="48.001"/>
</g>
<g>
	<polyline style="fill:#CBBBA0;" points="160,232 160,32 352,32 352,232 	"/>
	<polygon style="fill:#CBBBA0;" points="416,288 96,288 96,256 256,200 416,256 	"/>
</g>
<rect x="95.995" y="256" style="fill:#ED7149;" width="320" height="32"/>
<rect x="103.999" y="287.995" style="fill:#CBBBA0;" width="304.003" height="216.001"/>
<g>
	<rect x="119.996" y="335.997" style="fill:#FFFFFF;" width="32" height="119.996"/>
	<rect x="200.004" y="335.997" style="fill:#FFFFFF;" width="32" height="119.996"/>
</g>
<g>
	<rect x="112.003" y="287.995" style="fill:#F9B233;" width="48.001" height="24"/>
	<rect x="192" y="287.995" style="fill:#F9B233;" width="48.001" height="24"/>
	<rect x="271.997" y="287.995" style="fill:#F9B233;" width="48.001" height="24"/>
	<rect x="351.995" y="287.995" style="fill:#F9B233;" width="48.001" height="24"/>
	<rect x="112.003" y="479.995" style="fill:#F9B233;" width="48.001" height="24"/>
	<rect x="192" y="479.995" style="fill:#F9B233;" width="48.001" height="24"/>
	<rect x="271.997" y="479.995" style="fill:#F9B233;" width="48.001" height="24"/>
	<rect x="351.995" y="479.995" style="fill:#F9B233;" width="48.001" height="24"/>
</g>
<g>
	<rect x="280.001" y="335.997" style="fill:#FFFFFF;" width="32" height="119.996"/>
	<rect x="359.999" y="335.997" style="fill:#FFFFFF;" width="32" height="119.996"/>
	<rect x="48.001" y="368.003" style="fill:#FFFFFF;" width="24" height="39.999"/>
	<rect x="200.004" y="64" style="fill:#FFFFFF;" width="32" height="39.999"/>
	<rect x="280.001" y="64" style="fill:#FFFFFF;" width="32" height="39.999"/>
	<rect x="200.004" y="136.004" style="fill:#FFFFFF;" width="32" height="39.999"/>
	<rect x="280.001" y="136.004" style="fill:#FFFFFF;" width="32" height="39.999"/>
	<rect x="48.001" y="432.003" style="fill:#FFFFFF;" width="24" height="39.999"/>
	<rect x="439.996" y="368.003" style="fill:#FFFFFF;" width="24" height="39.999"/>
	<rect x="439.996" y="432.003" style="fill:#FFFFFF;" width="24" height="39.999"/>
	<circle style="fill:#FFFFFF;" cx="256" cy="247.996" r="16.001"/>
</g>
<g>
	<rect x="112.003" y="304.159" style="fill:#1D1D1B;" width="48.001" height="15.673"/>
	<rect x="192" y="304.159" style="fill:#1D1D1B;" width="47.999" height="15.673"/>
	<rect x="271.997" y="304.159" style="fill:#1D1D1B;" width="48.001" height="15.673"/>
	<rect x="351.995" y="304.159" style="fill:#1D1D1B;" width="47.999" height="15.673"/>
	<rect x="112.003" y="472.158" style="fill:#1D1D1B;" width="48.001" height="15.673"/>
	<rect x="192" y="472.158" style="fill:#1D1D1B;" width="47.999" height="15.673"/>
	<rect x="271.997" y="472.158" style="fill:#1D1D1B;" width="48.001" height="15.673"/>
	<rect x="351.995" y="472.158" style="fill:#1D1D1B;" width="47.999" height="15.673"/>
	<rect x="95.995" y="496.159" style="fill:#1D1D1B;" width="320" height="15.673"/>
	<path style="fill:#1D1D1B;" d="M159.837,463.836h-47.673V328.163h47.673V463.836z M127.837,448.163h16.327V343.836h-16.327
		C127.837,343.836,127.837,448.163,127.837,448.163z"/>
	<path style="fill:#1D1D1B;" d="M239.836,463.836h-47.673V328.163h47.673V463.836z M207.836,448.163h16.327V343.836h-16.327V448.163
		z"/>
	<path style="fill:#1D1D1B;" d="M319.837,463.836h-47.673V328.163h47.673V463.836z M287.837,448.163h16.327V343.836h-16.327V448.163
		z"/>
	<path style="fill:#1D1D1B;" d="M399.836,463.836h-47.673V328.163h47.673V463.836z M367.836,448.163h16.327V343.836h-16.327V448.163
		z"/>
	<path style="fill:#1D1D1B;" d="M256,271.836c-13.144,0-23.837-10.692-23.837-23.837c0-13.145,10.692-23.837,23.837-23.837
		c13.145,0,23.836,10.692,23.836,23.837C279.836,261.144,269.144,271.836,256,271.836z M256,239.836
		c-4.501,0-8.164,3.662-8.164,8.164s3.662,8.164,8.164,8.164s8.163-3.662,8.163-8.164S260.501,239.836,256,239.836z"/>
	<path style="fill:#1D1D1B;" d="M359.837,228.04V24.163H152.163V228.04l-64,22.401v45.397h335.673V250.44L359.837,228.04z
		 M167.837,39.837h176.327v182.717L256,191.697l-88.163,30.857V39.837z M408.163,280.163H103.837V261.56L256,208.302l152.163,53.257
		V280.163z"/>
	<polygon style="fill:#1D1D1B;" points="512,343.836 512,328.163 408,328.163 408,343.836 488.164,343.836 488.164,496.164 
		424,496.164 424,511.837 512,511.837 512,496.164 503.837,496.164 503.837,343.836 	"/>
	<polygon style="fill:#1D1D1B;" points="104,343.836 104,328.163 0,328.163 0,343.836 8.163,343.836 8.163,496.164 0,496.164 
		0,511.837 88,511.837 88,496.164 23.836,496.164 23.836,343.836 	"/>
	<rect x="136.004" y="0.163" style="fill:#1D1D1B;" width="240.003" height="15.673"/>
	<path style="fill:#1D1D1B;" d="M79.836,415.837H40.163v-55.673h39.674C79.836,360.164,79.836,415.837,79.836,415.837z
		 M55.836,400.164h8.327v-24.326h-8.327C55.836,375.837,55.836,400.164,55.836,400.164z"/>
	<path style="fill:#1D1D1B;" d="M239.836,111.836h-47.673V56.163h47.673V111.836z M207.836,96.163h16.327V71.837h-16.327V96.163z"/>
	<path style="fill:#1D1D1B;" d="M319.837,111.836h-47.673V56.163h47.673V111.836z M287.837,96.163h16.327V71.837h-16.327V96.163z"/>
	<path style="fill:#1D1D1B;" d="M239.836,183.836h-47.673v-55.673h47.673V183.836z M207.836,168.163h16.327v-24.326h-16.327V168.163
		z"/>
	<path style="fill:#1D1D1B;" d="M319.837,183.836h-47.673v-55.673h47.673V183.836z M287.837,168.163h16.327v-24.326h-16.327V168.163
		z"/>
	<path style="fill:#1D1D1B;" d="M79.836,479.837H40.163v-55.673h39.674C79.836,424.164,79.836,479.837,79.836,479.837z
		 M55.836,464.164h8.327v-24.326h-8.327C55.836,439.837,55.836,464.164,55.836,464.164z"/>
	<path style="fill:#1D1D1B;" d="M471.836,415.837h-39.674v-55.673h39.674V415.837z M447.837,400.164h8.327v-24.326h-8.327V400.164z"
		/>
	<path style="fill:#1D1D1B;" d="M471.836,479.837h-39.674v-55.673h39.674V479.837z M447.837,464.164h8.327v-24.326h-8.327V464.164z"
		/>
</g>
<g>
</g>
<g>
</g>
<g>
</g>
<g>
</g>
<g>
</g>
<g>
</g>
<g>
</g>
<g>
</g>
<g>
</g>
<g>
</g>
<g>
</g>
<g>
</g>
<g>
</g>
<g>
</g>
<g>
</g>
</svg>
