<?xml version="1.0" encoding="iso-8859-1"?>
<!-- Generator: Adobe Illustrator 19.0.0, SVG Export Plug-In . SVG Version: 6.00 Build 0)  -->
<svg version="1.1" id="Layer_1" xmlns="http://www.w3.org/2000/svg" xmlns:xlink="http://www.w3.org/1999/xlink" x="0px" y="0px"
	 viewBox="0 0 512 512" style="enable-background:new 0 0 512 512;" xml:space="preserve">
<path style="fill:#00D7DF;" d="M262.749,352.733l143.973,143.975c9.943,9.943,26.059,9.934,35.994,0l53.99-53.991
	c9.943-9.943,9.943-26.05,0-35.994L352.733,262.749c-9.943-9.943-26.05-9.943-35.994,0l-26.995,26.995l-18.006,18.006l-8.989,8.989
	C252.814,326.674,252.806,342.79,262.749,352.733z"/>
<path style="fill:#FFFFFF;" d="M303.241,348.234l107.98,107.982c7.457,7.457,17.529,9.467,22.496,4.499l13.498-13.498l9.007-9.007
	l4.49-4.49c4.972-4.972,2.958-15.038-4.499-22.497L348.233,303.242c-7.457-7.457-17.524-9.471-22.496-4.499l-26.995,26.995
	C293.775,330.705,295.784,340.777,303.241,348.234z"/>
<path style="fill:#00D7DF;" d="M249.251,159.266L105.278,15.291c-9.943-9.943-26.059-9.934-35.994,0l-53.99,53.991
	c-9.943,9.943-9.943,26.05,0,35.994l143.973,143.975c9.943,9.943,26.05,9.943,35.994,0l26.995-26.995l18.006-18.006l8.989-8.989
	C259.186,185.326,259.194,169.21,249.251,159.266z"/>
<path style="fill:#FFFFFF;" d="M208.759,163.766L100.778,55.784c-7.457-7.457-17.529-9.467-22.496-4.499L64.785,64.783l-9.007,9.008
	l-4.49,4.49c-4.972,4.972-2.958,15.038,4.499,22.496l107.98,107.982c7.457,7.457,17.524,9.471,22.496,4.499l26.995-26.995
	C218.225,181.295,216.217,171.223,208.759,163.766z"/>
<path d="M502.248,401.182l-13.25-13.25l-11.082,11.083l13.25,13.25c6.868,6.867,6.868,18.043,0,24.91l-53.991,53.992
	c-3.326,3.326-7.748,5.157-12.453,5.158c-0.001,0-0.001,0-0.003,0c-4.704,0-9.127-1.833-12.454-5.16L268.29,347.192
	c-3.328-3.329-5.16-7.753-5.159-12.458c0.001-4.705,1.833-9.127,5.159-12.454l8.989-8.989l-11.083-11.081l-8.989,8.989
	c-6.285,6.286-9.748,14.643-9.75,23.533c-0.001,8.893,3.461,17.254,9.75,23.544l143.974,143.975
	c6.287,6.287,14.646,9.749,23.537,9.749c0.002,0,0.004,0,0.005,0c8.89-0.001,17.248-3.464,23.533-9.749l53.99-53.991
	C515.227,435.28,515.227,414.162,502.248,401.182z"/>
<rect x="450.944" y="362.695" transform="matrix(-0.7071 -0.7071 0.7071 -0.7071 524.0963 958.1516)" width="19.088" height="15.673"/>
<path d="M20.835,74.823l53.99-53.992c3.326-3.326,7.749-5.158,12.453-5.159c0.001,0,0.002,0,0.003,0
	c4.704,0,9.127,1.833,12.455,5.16L243.71,164.807c3.328,3.329,5.16,7.753,5.159,12.458c-0.001,4.705-1.833,9.127-5.159,12.454
	l-8.99,8.99l11.083,11.081l8.989-8.989c6.285-6.286,9.748-14.643,9.75-23.533c0.001-8.893-3.461-17.254-9.75-23.544L110.819,9.749
	C104.532,3.462,96.172,0,87.281,0c-0.001,0-0.003,0-0.005,0c-8.89,0.001-17.248,3.464-23.533,9.749L9.752,63.74
	c-12.979,12.98-12.979,34.098,0,47.078l13.25,13.25l11.082-11.083L20.835,99.733C13.967,92.866,13.967,81.691,20.835,74.823z"/>
<path d="M301.153,312.244l-7.952,7.952c-8.153,8.153-6.177,22.903,4.499,33.581l107.98,107.982
	c4.688,4.687,10.438,7.903,16.188,9.052c1.556,0.31,3.088,0.463,4.576,0.463c5.016,0,9.536-1.738,12.816-5.018l26.995-26.995
	c8.153-8.152,6.177-22.902-4.499-33.58l-107.98-107.982l-11.082,11.083l107.98,107.981c4.951,4.951,5.556,10.358,4.499,11.414
	l-26.995,26.996c-0.366,0.366-1.536,0.606-3.236,0.265c-2.709-0.541-5.689-2.278-8.176-4.765l-107.98-107.981
	c-4.951-4.951-5.556-10.359-4.499-11.415l7.952-7.952l19.205,19.205l11.083-11.083l-41.7-41.701l21.457-21.458
	c3.329-3.328,7.752-5.162,12.455-5.162s9.126,1.834,12.455,5.163l85.282,85.282l11.083-11.083l-85.281-85.281
	c-6.289-6.29-14.648-9.754-23.538-9.754c-8.89,0-17.249,3.464-23.538,9.753l-21.461,21.457l-78.9-78.901l7.959-7.959
	c8.153-8.153,6.177-22.903-4.499-33.581L106.321,50.242c-4.688-4.687-10.437-7.903-16.188-9.052
	c-6.802-1.356-13.14,0.301-17.391,4.554L45.747,72.738c-8.153,8.152-6.177,22.902,4.499,33.58L158.226,214.3l11.082-11.083
	L61.328,95.236c-4.951-4.951-5.556-10.358-4.499-11.414l26.996-26.996c0.366-0.366,1.535-0.607,3.236-0.265
	c2.709,0.541,5.689,2.278,8.176,4.765l107.98,107.981c4.951,4.951,5.556,10.359,4.499,11.416l-7.959,7.959l-19.205-19.205
	l-11.082,11.083l41.7,41.701l-21.45,21.451c-3.329,3.329-7.752,5.162-12.455,5.162c-4.703,0-9.126-1.834-12.455-5.163
	l-85.282-85.283L68.445,169.51l85.281,85.281c6.289,6.29,14.648,9.754,23.538,9.754c8.89,0,17.249-3.464,23.538-9.753l21.451-21.45
	L301.153,312.244z"/>
<rect x="41.95" y="133.647" transform="matrix(0.7071 0.7071 -0.7071 0.7071 115.1263 5.0276)" width="19.088" height="15.673"/>
<g>
</g>
<g>
</g>
<g>
</g>
<g>
</g>
<g>
</g>
<g>
</g>
<g>
</g>
<g>
</g>
<g>
</g>
<g>
</g>
<g>
</g>
<g>
</g>
<g>
</g>
<g>
</g>
<g>
</g>
</svg>
