<?xml version="1.0" encoding="iso-8859-1"?>
<!-- Generator: Adobe Illustrator 19.0.0, SVG Export Plug-In . SVG Version: 6.00 Build 0)  -->
<svg version="1.1" id="Layer_1" xmlns="http://www.w3.org/2000/svg" xmlns:xlink="http://www.w3.org/1999/xlink" x="0px" y="0px"
	 viewBox="0 0 512 512" style="enable-background:new 0 0 512 512;" xml:space="preserve">
<rect x="79.997" y="12" style="fill:#CBBBA0;" width="351.995" height="64"/>
<rect y="180.005" style="fill:#F9B233;" width="512" height="27.335"/>
<g>
	<polyline style="fill:#ED7149;" points="0,180.001 0,124.001 120,124.001 120,148.001 392,148.001 392,124.001 512,124.001 
		512,177.334 	"/>
	<rect x="8" y="203.996" style="fill:#ED7149;" width="496.003" height="295.999"/>
</g>
<polyline style="fill:#CA9E67;" points="48.001,500.001 48.001,380.001 112.001,380.001 112.001,500.001 "/>
<rect x="183.996" y="459.996" style="fill:#FFFFFF;" width="256" height="39.999"/>
<rect x="183.996" y="331.996" style="fill:#D5C9B3;" width="256" height="128"/>
<g>
	<rect x="183.996" y="395.996" style="fill:#CBBBA0;" width="256" height="32"/>
	<rect x="183.996" y="331.996" style="fill:#CBBBA0;" width="256" height="32"/>
</g>
<polygon style="fill:#F9B233;" points="159.784,308.001 159.784,500.001 184,500.001 184,332 440,332 440,500.001 463.742,500.001 
	463.742,308.001 "/>
<g>
	<rect x="159.995" y="227.997" style="fill:#FFFFFF;" width="304.003" height="48.001"/>
	<rect x="48.001" y="236.001" style="fill:#FFFFFF;" width="64" height="103.999"/>
</g>
<g>
	<rect x="216.001" y="452.159" style="fill:#1D1D1B;" width="16.001" height="15.673"/>
	<rect x="240.003" y="452.159" style="fill:#1D1D1B;" width="143.997" height="15.673"/>
	<rect x="392.004" y="452.159" style="fill:#1D1D1B;" width="16.001" height="15.673"/>
	<path style="fill:#1D1D1B;" d="M0.163,196.163v311.673h511.674V196.163H0.163z M104.164,492.164H55.837V387.837h48.327V492.164z
		 M455.906,492.164h-8.069V324.163H176.164v168h-8.543V315.837h288.285V492.164z M432.164,356.163H191.837v-16.327h240.327V356.163z
		 M191.837,371.837h240.327v16.327H191.837V371.837z M191.837,403.837h240.327v16.327H191.837V403.837z M191.837,467.837h16.164
		v-15.673h-16.164v-16.327h240.327v16.327H416v15.673h16.164v24.326H191.837V467.837z M496.164,492.164h-24.584v-192H151.947v192
		h-32.11v-120H40.164v120H15.836V211.837h480.327V492.164z"/>
	<rect y="172.168" style="fill:#1D1D1B;" width="512" height="15.673"/>
	<polygon style="fill:#1D1D1B;" points="511.837,164 496.164,164 496.164,131.837 399.836,131.837 399.836,155.838 112.164,155.838 
		112.164,131.837 15.836,131.837 15.836,164 0.163,164 0.163,116.164 127.837,116.164 127.837,140.164 384.163,140.164 
		384.163,116.164 511.837,116.164 	"/>
	<path style="fill:#1D1D1B;" d="M439.837,4.163H72.164v79.673h24V108h15.673V83.837h288.327V108h15.673V83.837h24V4.163H439.837z
		 M424.164,68.163H87.837V19.837h336.327V68.163z"/>
	<rect x="103.999" y="36.163" style="fill:#1D1D1B;" width="143.997" height="15.673"/>
	<rect x="271.997" y="36.163" style="fill:#1D1D1B;" width="16.001" height="15.673"/>
	<rect x="304.003" y="36.163" style="fill:#1D1D1B;" width="16.001" height="15.673"/>
	<rect x="335.997" y="36.163" style="fill:#1D1D1B;" width="16.001" height="15.673"/>
	<rect x="368.003" y="36.163" style="fill:#1D1D1B;" width="16.001" height="15.673"/>
	<path style="fill:#1D1D1B;" d="M40.164,228.163v119.673h79.673V228.163H40.164z M55.837,243.837h16.327v88.326H55.837V243.837z
		 M104.164,332.164H87.837v-88.326h16.327V332.164z"/>
	<path style="fill:#1D1D1B;" d="M152.163,220.164v63.674h319.674v-63.674L152.163,220.164L152.163,220.164z M376.163,235.837v32.327
		H247.837v-32.327L376.163,235.837L376.163,235.837z M167.837,235.837h64.327v32.327h-64.327V235.837z M456.164,268.164h-64.327
		v-32.327h64.326v32.327H456.164z"/>
	<rect x="64.167" y="436.005" style="fill:#1D1D1B;" width="15.673" height="16.001"/>
</g>
<g>
</g>
<g>
</g>
<g>
</g>
<g>
</g>
<g>
</g>
<g>
</g>
<g>
</g>
<g>
</g>
<g>
</g>
<g>
</g>
<g>
</g>
<g>
</g>
<g>
</g>
<g>
</g>
<g>
</g>
</svg>
