<?xml version="1.0" encoding="iso-8859-1"?>
<!-- Generator: Adobe Illustrator 19.0.0, SVG Export Plug-In . SVG Version: 6.00 Build 0)  -->
<svg version="1.1" id="Layer_1" xmlns="http://www.w3.org/2000/svg" xmlns:xlink="http://www.w3.org/1999/xlink" x="0px" y="0px"
	 viewBox="0 0 512 512" style="enable-background:new 0 0 512 512;" xml:space="preserve">
<polygon style="fill:#00D7DF;" points="444.082,144.185 444.082,449.306 67.918,449.306 67.918,62.694 362.59,62.694 "/>
<g>
	<rect x="188.082" y="62.694" style="fill:#FFFFFF;" width="135.837" height="104.49"/>
	<path style="fill:#FFFFFF;" d="M360.49,449.306H151.51V313.469c0-11.542,9.356-20.898,20.898-20.898h167.184
		c11.542,0,20.898,9.356,20.898,20.898V449.306z"/>
</g>
<rect x="198.531" y="363.102" width="114.939" height="15.673"/>
<rect x="198.531" y="396.016" width="114.939" height="15.673"/>
<rect x="298.015" y="330.188" width="15.458" height="15.673"/>
<rect x="198.531" y="330.188" width="80.927" height="15.673"/>
<path d="M451.918,140.94l-86.083-86.083H60.082v386.612H33.959v15.673h444.082v-15.673h-26.122V140.94z M195.918,70.531h120.163
	v88.816H195.918V70.531z M75.755,70.531h104.49v104.49h151.51V70.531h27.588l76.901,76.901v294.037H75.755V70.531z"/>
<path d="M339.592,284.735H172.408c-15.844,0-28.735,12.891-28.735,28.735v114.925h15.673V313.469
	c0-7.202,5.859-13.061,13.061-13.061h167.184c7.202,0,13.061,5.859,13.061,13.061v114.925h15.673V313.469
	C368.327,297.626,355.436,284.735,339.592,284.735z"/>
<rect x="496.327" y="441.469" width="15.673" height="15.673"/>
<rect y="441.469" width="15.673" height="15.673"/>
<g>
</g>
<g>
</g>
<g>
</g>
<g>
</g>
<g>
</g>
<g>
</g>
<g>
</g>
<g>
</g>
<g>
</g>
<g>
</g>
<g>
</g>
<g>
</g>
<g>
</g>
<g>
</g>
<g>
</g>
</svg>
