<?xml version="1.0" encoding="iso-8859-1"?>
<!-- Generator: Adobe Illustrator 19.0.0, SVG Export Plug-In . SVG Version: 6.00 Build 0)  -->
<svg version="1.1" id="Layer_1" xmlns="http://www.w3.org/2000/svg" xmlns:xlink="http://www.w3.org/1999/xlink" x="0px" y="0px"
	 viewBox="0 0 512 512" style="enable-background:new 0 0 512 512;" xml:space="preserve">
<path style="fill:#29ABE2;" d="M496.162,264.005c0,132.638-107.525,240.163-240.163,240.163S15.836,396.643,15.836,264.005
	c0-67.183,27.586-127.922,72.048-171.511c12.155-11.915,25.571-22.549,40.029-31.682c17.308-10.934,36.11-19.717,56.031-25.974
	c22.746-7.145,46.952-10.997,72.055-10.997C388.638,23.842,496.162,131.367,496.162,264.005z"/>
<polyline style="fill:#C7B299;" points="152.67,143.918 175.944,143.918 215.972,159.932 199.961,207.966 183.95,199.961 
	127.412,223.978 86.884,199.962 86.884,167.941 103.896,152.271 127.608,152.271 "/>
<path style="fill:#0C6D95;" d="M31.847,264.005c0-67.183,27.586-127.922,72.048-171.511c12.155-11.915,25.571-22.549,40.029-31.682
	c17.309-10.933,36.11-19.717,56.031-25.974c20.803-6.535,42.867-10.155,65.682-10.753c-3.201-0.126-6.405-0.243-9.637-0.243
	c-25.105,0-49.309,3.852-72.055,10.997c-19.92,6.257-38.722,15.041-56.031,25.974c-14.458,9.134-27.874,19.767-40.029,31.682
	c-44.463,43.587-72.048,104.328-72.048,171.511c0,132.638,107.525,240.163,240.163,240.163c2.685,0,5.342-0.115,8.006-0.203
	C135.08,499.734,31.847,393.959,31.847,264.005z"/>
<path style="fill:#54BCE8;" d="M255.999,23.842c-12.219,0-24.215,0.947-35.945,2.708c115.509,17.417,204.059,117.09,204.059,237.455
	c0,120.394-88.591,220.083-204.139,237.466c11.753,1.768,23.78,2.697,36.024,2.697c132.638,0,240.163-107.525,240.163-240.163
	S388.638,23.842,255.999,23.842z"/>
<g>
	<polygon style="fill:#C7B299;" points="119.581,464.141 167.289,440.125 167.289,416.109 135.918,408.102 111.901,408.102 
		79.717,432.119 	"/>
	<path style="fill:#C7B299;" d="M367.775,472.147V448.13l24.166-8.006l8.08-64.043l-15.973-31.675l-23.979,8.353h-16.011
		l-24.017,79.36h-24.017l-16.011,16.011l-16.011-16.011h-23.622v-79.36h47.638l24.017-24.363l-24.017-39.854l32.022-31.849h32.022
		l56.038-39.68h32.767v-33.061l-24.389-24.017l55.702-8.006C472.182,151.93,568.264,365.052,367.775,472.147z"/>
</g>
<g>
	<polygon style="fill:#998675;" points="268.008,436.122 280.015,448.13 296.027,432.118 272.01,432.118 	"/>
	<polygon style="fill:#998675;" points="360.07,352.759 363.5,351.269 360.07,344.58 336.053,352.759 320.043,352.759 
		296.027,432.118 320.043,432.118 344.059,352.759 	"/>
	<path style="fill:#998675;" d="M471.996,151.93l-22.602,3.239c9.628,24.024,66.069,180.963-57.301,284.645l-0.021,0.311
		l-0.764,0.208c-7.139,5.959-15.179,11.693-23.532,17.261v14.552C568.264,365.052,471.996,151.93,471.996,151.93z"/>
</g>
<path style="fill:#FBB03B;" d="M191.956,63.87c0,30.949-56.038,104.071-56.038,104.071S79.88,94.818,79.88,63.87
	s25.089-56.038,56.038-56.038C166.866,7.832,191.956,32.921,191.956,63.87z"/>
<circle style="fill:#FFFFFF;" cx="135.913" cy="63.874" r="32.022"/>
<path style="fill:#FBB03B;" d="M416.107,167.941c0,30.949-56.038,104.071-56.038,104.071s-56.038-73.122-56.038-104.071
	s25.089-56.038,56.038-56.038C391.018,111.902,416.107,136.991,416.107,167.941z"/>
<circle style="fill:#FFFFFF;" cx="360.072" cy="167.94" r="32.022"/>
<path style="fill:#FBB03B;" d="M183.95,312.038c0,30.949-56.038,104.071-56.038,104.071s-56.038-73.122-56.038-104.071
	s25.089-56.038,56.038-56.038S183.95,281.09,183.95,312.038z"/>
<circle style="fill:#FFFFFF;" cx="127.914" cy="312.04" r="32.022"/>
<polygon style="fill:#C7B299;" points="255.999,167.941 247.994,191.956 255.999,207.967 247.994,231.984 280.015,256 
	296.027,223.978 280.015,175.945 "/>
<path d="M282.824,267.896l-44.046-33.033l8.764-26.294l-8.005-16.011l11.508-34.523l35.162,11.72l18.275,54.825L282.824,267.896z
	 M257.209,229.105l19.999,14.999l10.364-20.727l-13.747-41.241l-12.872-4.291l-4.504,13.51l8.006,16.011L257.209,229.105z"/>
<path d="M431.358,88.647c-46.84-46.84-109.117-72.636-175.359-72.636c-23.442,0-46.587,3.267-68.891,9.705
	C175.452,10.116,156.844,0,135.918,0c-35.218,0-63.87,28.652-63.87,63.87c0,7.395,2.659,16.628,6.831,26.573
	C33.141,137.068,8.005,198.499,8.005,264.005c0,66.242,25.796,128.519,72.636,175.359S189.758,512,255.999,512
	s128.519-25.796,175.36-72.636c46.839-46.84,72.636-109.117,72.636-175.359S478.198,135.487,431.358,88.647z M135.918,15.663
	c26.581,0,48.207,21.625,48.207,48.207c0,20.466-30.594,66.76-48.188,90.938c-5.329-7.342-13.399-18.804-21.419-31.483
	C91.194,86.45,87.711,70.246,87.711,63.87C87.711,37.289,109.337,15.663,135.918,15.663z M129.701,172.704l6.216,8.111l6.216-8.111
	c1.753-2.288,7.557-9.944,14.848-20.432h17.478l31.729,12.488l-10.786,32.27l-11.176-5.633l-55.959,23.849l-33.029-19.726v-24.291
	l11.859-11.645h12.917C124.796,166.254,128.387,170.99,129.701,172.704z M127.931,402.976c-5.329-7.343-13.399-18.804-21.419-31.483
	c-23.323-36.875-26.806-53.078-26.806-59.455c0-26.581,21.625-48.206,48.207-48.206s48.207,21.625,48.207,48.206
	C176.119,332.504,145.525,378.798,127.931,402.976z M121.696,420.872l6.216,8.111l6.216-8.111c0.618-0.806,1.743-2.286,3.254-4.313
	l22.598,5.661v13.066l-37.632,18.829c-10.242-7.233-19.96-15.357-29.077-24.31l20.126-20.126
	C117.481,415.334,120.512,419.328,121.696,420.872z M137.594,464.001l38.048-19.037v-34.967l-28.377-7.109
	c17.204-24.496,44.518-67.12,44.518-90.85c0-35.218-28.652-63.869-63.87-63.869s-63.87,28.652-63.87,63.869
	c0,21.828,23.113,59.647,40.208,84.635l-21.794,21.794c-38.002-42.586-58.79-96.923-58.79-154.461
	c0-59.425,22.082-115.27,62.385-158.408c6.919,13.297,15.412,26.856,23.098,38.32h-8.457l-21.119,20.736v39.753l47.503,28.37
	l56.596-24.12l20.845,10.507l21.236-63.538l-48.325-19.018h-9.928c15.53-23.98,32.285-54.155,32.285-72.739
	c0-8.531-1.694-16.67-4.743-24.116c19.78-5.362,40.242-8.079,60.954-8.079c62.058,0,120.402,24.167,164.283,68.049
	c13.471,13.471,25.076,28.309,34.702,44.196h-35.749c-9.514-23.343-32.442-39.847-59.165-39.847c-35.218,0-63.87,28.652-63.87,63.87
	c0,20.916,21.224,56.519,38.038,81.443h-17.4l-38.738,38.055l24.052,39.521l-17.386,17.447h-52.74v95.023h28.732l19.254,19.255
	l19.254-19.255h26.584l24.017-79.36h11.487l18.662-6.314l11.801,23.691l-7.28,56.779l-25.119,8.233v29.342h0.758
	c-31.932,16.049-67.404,24.539-104.181,24.539C213.663,496.337,173.06,485.081,137.594,464.001z M432.516,188.189v20.471h-22.059
	c4.952-9.619,9.043-19.067,11.375-27.452L432.516,188.189z M338.669,227.396c-23.324-36.875-26.807-53.078-26.807-59.455
	c0-26.581,21.625-48.207,48.207-48.207s48.207,21.626,48.207,48.207c0,20.466-30.594,66.76-48.188,90.938
	C354.76,251.535,346.689,240.073,338.669,227.396z M420.282,428.289c-13.754,13.754-28.931,25.57-45.196,35.314v-9.798l23.735-7.779
	l9.142-71.308l-20.015-40.181l-29.166,9.868h-20.534l-24.017,79.36h-21.447l-12.767,12.767l-12.768-12.767h-19.557v-63.697h43.58
	l30.65-30.757l-23.982-39.405l25.305-24.86h21.922c4.28,5.938,7.466,10.136,8.687,11.729l6.216,8.111l6.216-8.111
	c3.275-4.273,20.665-27.258,35.499-52.453h46.395v-44.608l-24.391-15.94c-0.092-1.411-0.232-2.808-0.414-4.192h40.296
	c16.128,31.994,24.659,67.554,24.659,104.425C488.331,326.064,464.164,384.407,420.282,428.289z"/>
<path d="M127.608,119.901h15.663v-16.869c18.473-3.462,32.499-19.7,32.499-39.162c0.001-21.975-17.877-39.853-39.852-39.853
	S96.065,41.895,96.065,63.87c0,19.126,13.544,35.143,31.544,38.976v17.055H127.608z M111.727,63.87
	c0-13.339,10.851-24.19,24.19-24.19s24.19,10.851,24.19,24.19s-10.851,24.191-24.19,24.191
	C122.579,88.06,111.727,77.207,111.727,63.87z"/>
<path d="M367.775,223.277v-16.238c18.3-3.6,32.147-19.761,32.147-39.099c0-21.975-17.878-39.853-39.853-39.853
	s-39.853,17.878-39.853,39.853c0,19.251,13.721,35.357,31.896,39.054v16.283H367.775z M335.88,167.941
	c0-13.339,10.852-24.19,24.19-24.19c13.338,0,24.19,10.851,24.19,24.19c0,13.339-10.851,24.191-24.19,24.191
	C346.731,192.131,335.88,181.279,335.88,167.941z"/>
<path d="M167.766,312.038c0-21.975-17.879-39.853-39.854-39.853s-39.853,17.878-39.853,39.853c0,19.002,13.371,34.931,31.196,38.896
	v17.488h15.663v-17.159C153.562,347.941,167.766,331.622,167.766,312.038z M127.912,336.229c-13.339,0-24.19-10.851-24.19-24.191
	c0-13.339,10.851-24.19,24.19-24.19s24.191,10.851,24.191,24.19C152.103,325.376,141.251,336.229,127.912,336.229z"/>
<g>
</g>
<g>
</g>
<g>
</g>
<g>
</g>
<g>
</g>
<g>
</g>
<g>
</g>
<g>
</g>
<g>
</g>
<g>
</g>
<g>
</g>
<g>
</g>
<g>
</g>
<g>
</g>
<g>
</g>
</svg>
