<?xml version="1.0" encoding="iso-8859-1"?>
<!-- Generator: Adobe Illustrator 19.0.0, SVG Export Plug-In . SVG Version: 6.00 Build 0)  -->
<svg version="1.1" id="Layer_1" xmlns="http://www.w3.org/2000/svg" xmlns:xlink="http://www.w3.org/1999/xlink" x="0px" y="0px"
	 viewBox="0 0 490 490" style="enable-background:new 0 0 490 490;" xml:space="preserve">
<g>
	<g>
		<rect x="75.001" y="10" style="fill:#43B05C;" width="340" height="180"/>
	</g>
	<g>
		<g id="XMLID_100_">
			<g>
				<path style="fill:#1B8E42;" d="M380,70v60c-13.8,0-25,11.2-25,25h-220c0-13.8-11.2-25-25-25V70c13.8,0,25-11.2,25-25h220
					C355,58.8,366.201,70,380,70z"/>
			</g>
			<g>
				<g>
					<path style="fill:#231F20;" d="M355,165h-220c-5.523,0-10-4.478-10-10c0-8.271-6.729-15-15-15c-5.523,0-10-4.478-10-10V70
						c0-5.522,4.477-10,10-10c8.271,0,15-6.729,15-15c0-5.522,4.477-10,10-10h220c5.523,0,10,4.478,10,10c0,8.271,6.729,15,15,15
						c5.523,0,10,4.478,10,10v60c0,5.522-4.477,10-10,10c-8.271,0-15,6.729-15,15C365,160.522,360.523,165,355,165z M143.546,145
						h202.91c3.367-11.271,12.273-20.179,23.545-23.545v-42.91C358.728,75.179,349.822,66.271,346.455,55h-202.91
						c-3.367,11.271-12.273,20.179-23.545,23.545v42.91C131.273,124.821,140.178,133.729,143.546,145z"/>
				</g>
			</g>
		</g>
	</g>
	<circle style="fill:#00602B;" cx="245.001" cy="100" r="30"/>
	<g>
		<rect x="300" y="90" style="fill:#231F20;" width="20" height="20"/>
	</g>
	<g>
		<rect x="170.001" y="90" style="fill:#231F20;" width="20" height="20"/>
	</g>
	<g>
		<rect x="75.001" y="225" style="fill:#AFB6BB;" width="340" height="35"/>
		<rect x="75.001" y="190" style="fill:#E7ECED;" width="340" height="35"/>
	</g>
	<g id="XMLID_103_">
		<g>
			<path style="fill:#AFB6BB;" d="M105.001,374.4c81.6-81.6,140,0,140,0C176.101,443.3,105.001,374.4,105.001,374.4z"/>
			<path style="fill:#AFB6BB;" d="M245.001,335.6c68.9-68.9,140,0,140,0C303.4,417.2,245.001,335.6,245.001,335.6z"/>
		</g>
		<path style="fill:#231F20;" d="M415,0h-340c-5.523,0-10,4.478-10,10v250c0,5.522,4.477,10,10,10h160v65.638v0.006v14.332
			c-11.855-9.651-29.139-19.787-50.796-21.57c-29.034-2.393-58.058,10.706-86.275,38.923c-1.895,1.895-2.95,4.471-2.928,7.149
			c0.021,2.68,1.116,5.238,3.041,7.104c0.793,0.769,19.759,18.938,48.019,28.162c9.273,3.026,20.147,5.265,32.038,5.265
			c17.42,0,37.013-4.812,56.902-18.992V470H90.001v20h310v-20h-145v-95.638v-0.006v-14.332c11.855,9.651,29.139,19.787,50.796,21.57
			c2.243,0.185,4.482,0.276,6.725,0.276c26.783,0,53.514-13.163,79.55-39.199c1.895-1.895,2.95-4.471,2.928-7.149
			c-0.021-2.68-1.116-5.238-3.041-7.104c-0.793-0.769-19.759-18.938-48.019-28.162c-22.858-7.46-55.477-10.13-88.94,13.728V270h160
			c5.523,0,10-4.478,10-10V10C425,4.478,420.523,0,415,0z M152.877,390.929c-14.006-4.469-25.532-11.73-32.742-17.042
			c21.083-18.58,41.991-27.18,62.259-25.562c22.963,1.825,40.305,16.497,48.764,25.301
			C207.381,394.104,181.085,399.926,152.877,390.929z M337.124,319.071c14.006,4.469,25.532,11.73,32.742,17.042
			c-21.083,18.58-41.986,27.185-62.259,25.562c-22.963-1.825-40.305-16.497-48.764-25.301
			C282.619,315.896,308.914,310.072,337.124,319.071z M85.001,200h320v15h-320V200z M85.001,20h320v160h-320V20z M405,250h-320v-15
			h320V250z"/>
	</g>
</g>
<g>
</g>
<g>
</g>
<g>
</g>
<g>
</g>
<g>
</g>
<g>
</g>
<g>
</g>
<g>
</g>
<g>
</g>
<g>
</g>
<g>
</g>
<g>
</g>
<g>
</g>
<g>
</g>
<g>
</g>
</svg>
