<?xml version="1.0" encoding="iso-8859-1"?>
<!-- Generator: Adobe Illustrator 19.0.0, SVG Export Plug-In . SVG Version: 6.00 Build 0)  -->
<svg version="1.1" id="Layer_1" xmlns="http://www.w3.org/2000/svg" xmlns:xlink="http://www.w3.org/1999/xlink" x="0px" y="0px"
	 viewBox="0 0 512 512" style="enable-background:new 0 0 512 512;" xml:space="preserve">
<polyline style="fill:#CBBBA0;" points="71.94,512 71.94,7.835 440.06,7.835 440.06,512 "/>
<g>
	<rect x="111.957" y="71.856" style="fill:#F9B233;" width="32.011" height="64.017"/>
	<rect x="175.974" y="71.856" style="fill:#F9B233;" width="32.011" height="40.011"/>
	<rect x="239.991" y="71.856" style="fill:#F9B233;" width="32.011" height="40.011"/>
	<rect x="304.018" y="71.856" style="fill:#F9B233;" width="32.011" height="64.017"/>
	<rect x="368.035" y="71.856" style="fill:#F9B233;" width="32.011" height="48.016"/>
	<rect x="111.957" y="183.892" style="fill:#F9B233;" width="32.011" height="32.011"/>
	<rect x="175.974" y="183.892" style="fill:#F9B233;" width="32.011" height="32.011"/>
	<rect x="239.991" y="183.892" style="fill:#F9B233;" width="32.011" height="32.011"/>
	<rect x="304.018" y="183.892" style="fill:#F9B233;" width="32.011" height="56.018"/>
	<rect x="368.035" y="183.892" style="fill:#F9B233;" width="32.011" height="56.018"/>
	<rect x="368.035" y="295.932" style="fill:#F9B233;" width="32.011" height="40.011"/>
	<rect x="304.018" y="295.932" style="fill:#F9B233;" width="32.011" height="24.007"/>
	<rect x="239.991" y="295.932" style="fill:#F9B233;" width="32.011" height="56.018"/>
	<rect x="175.974" y="295.932" style="fill:#F9B233;" width="32.011" height="56.018"/>
	<rect x="111.957" y="295.932" style="fill:#F9B233;" width="32.011" height="32.011"/>
	<rect x="111.957" y="407.962" style="fill:#F9B233;" width="32.011" height="32.011"/>
	<rect x="175.974" y="407.962" style="fill:#F9B233;" width="32.011" height="56.018"/>
	<rect x="239.991" y="407.962" style="fill:#F9B233;" width="32.011" height="56.018"/>
	<rect x="304.018" y="407.962" style="fill:#F9B233;" width="32.011" height="56.018"/>
	<rect x="368.035" y="407.962" style="fill:#F9B233;" width="32.011" height="40.011"/>
</g>
<g>
	<rect x="111.957" y="135.879" style="fill:#FFFFFF;" width="32.011" height="24.007"/>
	<rect x="175.974" y="111.873" style="fill:#FFFFFF;" width="32.011" height="48.016"/>
	<rect x="239.991" y="111.873" style="fill:#FFFFFF;" width="32.011" height="48.016"/>
	<rect x="304.018" y="135.879" style="fill:#FFFFFF;" width="32.011" height="24.007"/>
	<rect x="368.035" y="119.875" style="fill:#FFFFFF;" width="32.011" height="40.011"/>
	<rect x="368.035" y="239.907" style="fill:#FFFFFF;" width="32.011" height="32.011"/>
	<rect x="304.018" y="239.907" style="fill:#FFFFFF;" width="32.011" height="32.011"/>
	<rect x="239.991" y="215.901" style="fill:#FFFFFF;" width="32.011" height="56.018"/>
	<rect x="175.974" y="215.901" style="fill:#FFFFFF;" width="32.011" height="56.018"/>
	<rect x="111.957" y="215.901" style="fill:#FFFFFF;" width="32.011" height="56.018"/>
	<rect x="111.957" y="327.941" style="fill:#FFFFFF;" width="32.011" height="56.018"/>
	<rect x="175.974" y="351.947" style="fill:#FFFFFF;" width="32.011" height="32.011"/>
	<rect x="239.991" y="351.947" style="fill:#FFFFFF;" width="32.011" height="32.011"/>
	<rect x="304.018" y="319.939" style="fill:#FFFFFF;" width="32.011" height="64.017"/>
	<rect x="368.035" y="335.943" style="fill:#FFFFFF;" width="32.011" height="48.016"/>
	<rect x="368.035" y="447.983" style="fill:#FFFFFF;" width="32.011" height="48.016"/>
	<rect x="304.018" y="463.987" style="fill:#FFFFFF;" width="32.011" height="32.011"/>
	<rect x="239.991" y="463.987" style="fill:#FFFFFF;" width="32.011" height="32.011"/>
	<rect x="175.974" y="463.987" style="fill:#FFFFFF;" width="32.011" height="32.011"/>
	<rect x="111.957" y="439.981" style="fill:#FFFFFF;" width="32.011" height="56.018"/>
</g>
<rect x="71.089" y="7.835" style="fill:#ED7149;" width="368.975" height="32.011"/>
<g>
	<rect x="111.957" y="32.011" style="fill:#1D1D1B;" width="280.095" height="15.67"/>
	<polygon style="fill:#1D1D1B;" points="64.105,0 64.105,512 79.775,512 79.775,47.681 95.947,47.681 95.947,32.011 79.775,32.011 
		79.775,15.67 432.225,15.67 432.225,32.011 408.05,32.011 408.05,47.681 432.225,47.681 432.225,512 447.895,512 447.895,0 	"/>
	<path style="fill:#1D1D1B;" d="M104.118,167.72h47.681V64.021h-47.681V167.72z M119.788,152.05v-8.337h16.341v8.337H119.788z
		 M136.128,79.691v48.351h-16.341V79.691H136.128z"/>
	<path style="fill:#1D1D1B;" d="M168.139,167.72h47.681V64.021h-47.681V167.72z M183.809,152.05v-32.346h16.341v32.346H183.809z
		 M200.15,79.691v24.343h-16.342V79.691H200.15z"/>
	<path style="fill:#1D1D1B;" d="M232.16,167.72h47.681V64.021H232.16L232.16,167.72L232.16,167.72z M247.83,152.05v-32.346h16.341
		v32.346H247.83z M264.17,79.691v24.343H247.83V79.691H264.17z"/>
	<path style="fill:#1D1D1B;" d="M296.181,167.72h47.681V64.021h-47.681V167.72z M311.851,152.05v-8.337h16.341v8.337H311.851z
		 M328.191,79.691v48.351h-16.341V79.691H328.191z"/>
	<path style="fill:#1D1D1B;" d="M360.202,64.021V167.72h47.681V64.021H360.202z M392.213,79.691v32.346h-16.341V79.691H392.213z
		 M375.872,152.05v-24.343h16.341v24.343H375.872z"/>
	<path style="fill:#1D1D1B;" d="M104.118,279.757h47.681v-103.7h-47.681V279.757z M119.788,264.087v-40.349h16.341v40.349H119.788
		L119.788,264.087z M136.128,191.727v16.341h-16.341v-16.341H136.128z"/>
	<path style="fill:#1D1D1B;" d="M168.139,279.757h47.681v-103.7h-47.681V279.757z M183.809,264.087v-40.349h16.341v40.349H183.809
		L183.809,264.087z M200.15,191.727v16.341h-16.342v-16.341H200.15z"/>
	<path style="fill:#1D1D1B;" d="M232.16,176.057v103.7h47.681v-103.7H232.16z M264.17,191.727v16.341H247.83v-16.341H264.17z
		 M247.83,264.087v-40.349h16.341v40.349H247.83L247.83,264.087z"/>
	<path style="fill:#1D1D1B;" d="M296.181,176.057v103.7h47.681v-103.7H296.181z M328.191,191.727v40.349h-16.341v-40.349H328.191z
		 M311.851,264.087v-16.341h16.341v16.341H311.851z"/>
	<path style="fill:#1D1D1B;" d="M360.202,176.057v103.7h47.681v-103.7H360.202z M392.213,191.727v40.349h-16.341v-40.349H392.213z
		 M375.872,264.087v-16.341h16.341v16.341H375.872z"/>
	<path style="fill:#1D1D1B;" d="M104.118,391.793h47.681V288.094h-47.681V391.793z M119.788,376.123v-40.349h16.341v40.349H119.788z
		 M136.128,303.764v16.341h-16.341v-16.341H136.128z"/>
	<path style="fill:#1D1D1B;" d="M168.139,391.793h47.681V288.094h-47.681V391.793z M183.809,376.123v-16.341h16.341v16.341H183.809z
		 M200.15,303.764v40.348h-16.342v-40.348L200.15,303.764L200.15,303.764z"/>
	<path style="fill:#1D1D1B;" d="M232.16,391.793h47.681V288.094H232.16L232.16,391.793L232.16,391.793z M247.83,376.123v-16.341
		h16.341v16.341H247.83z M264.17,303.764v40.348H247.83v-40.348L264.17,303.764L264.17,303.764z"/>
	<path style="fill:#1D1D1B;" d="M296.181,391.793h47.681V288.094h-47.681V391.793z M311.851,376.123v-48.351h16.341v48.351H311.851z
		 M328.191,303.764v8.337h-16.341v-8.337H328.191z"/>
	<path style="fill:#1D1D1B;" d="M360.202,288.094v103.699h47.681V288.094L360.202,288.094L360.202,288.094z M392.213,303.764v24.343
		h-16.341v-24.343H392.213z M375.872,376.123v-32.345h16.341v32.346h-16.341V376.123z"/>
	<path style="fill:#1D1D1B;" d="M104.118,503.831h47.681v-103.7h-47.681V503.831z M119.788,488.161v-40.349h16.341v40.349H119.788z
		 M136.128,415.801v16.341h-16.341v-16.341H136.128z"/>
	<path style="fill:#1D1D1B;" d="M168.139,503.831h47.681v-103.7h-47.681V503.831z M183.809,488.161V471.82h16.341v16.341H183.809z
		 M200.15,415.801v40.349h-16.342v-40.349H200.15z"/>
	<path style="fill:#1D1D1B;" d="M232.16,503.831h47.681v-103.7H232.16L232.16,503.831L232.16,503.831z M247.83,488.161V471.82
		h16.341v16.341H247.83z M264.17,415.801v40.349H247.83v-40.349H264.17z"/>
	<path style="fill:#1D1D1B;" d="M296.181,503.831h47.681v-103.7h-47.681V503.831z M311.851,488.161V471.82h16.341v16.341H311.851z
		 M328.191,415.801v40.349h-16.341v-40.349H328.191z"/>
	<path style="fill:#1D1D1B;" d="M360.202,400.131v103.7h47.681v-103.7H360.202z M392.213,415.801v24.344h-16.341v-24.344H392.213z
		 M375.872,488.161v-32.346h16.341v32.346H375.872z"/>
</g>
<g>
</g>
<g>
</g>
<g>
</g>
<g>
</g>
<g>
</g>
<g>
</g>
<g>
</g>
<g>
</g>
<g>
</g>
<g>
</g>
<g>
</g>
<g>
</g>
<g>
</g>
<g>
</g>
<g>
</g>
</svg>
