<?xml version="1.0" encoding="iso-8859-1"?>
<!-- Generator: Adobe Illustrator 19.0.0, SVG Export Plug-In . SVG Version: 6.00 Build 0)  -->
<svg version="1.1" id="Layer_1" xmlns="http://www.w3.org/2000/svg" xmlns:xlink="http://www.w3.org/1999/xlink" x="0px" y="0px"
	 viewBox="0 0 512 512" style="enable-background:new 0 0 512 512;" xml:space="preserve">
<path style="fill:#009245;" d="M320.047,264.005c0,35.372-28.675,64.047-64.047,64.047s-64.047-28.675-64.047-64.047
	S256,151.924,256,151.924S320.047,228.633,320.047,264.005z"/>
<polygon style="fill:#D9E021;" points="256,151.924 288.023,199.959 256,239.988 223.977,199.959 "/>
<g>
	<polygon style="fill:#8CC63F;" points="312.04,239.988 256,296.029 256,239.988 296.029,199.959 	"/>
	<polygon style="fill:#8CC63F;" points="199.959,239.988 256,296.029 256,239.988 215.97,199.959 	"/>
</g>
<path style="fill:#009245;" d="M408.111,256c0,84.008-68.102,152.111-152.111,152.111l40.03,48.035L256,504.181
	c137.067,0,248.181-111.115,248.181-248.181l-48.035-40.03L408.111,256z"/>
<path style="fill:#39B54A;" d="M256,103.889c84.008,0,152.111,68.103,152.111,152.111l48.035-40.03L504.181,256
	C504.181,118.933,393.066,7.819,256,7.819l-40.03,48.035L256,103.889z"/>
<path style="fill:#8CC63F;" d="M103.889,256c0-84.008,68.103-152.111,152.111-152.111l-40.03-48.035L256,7.819
	C118.933,7.819,7.819,118.934,7.819,256l48.035,40.03L103.889,256z"/>
<path style="fill:#D9E021;" d="M256,408.111c-84.008,0-152.111-68.102-152.111-152.111l-48.035,40.03L7.819,256
	c0,137.067,111.115,248.181,248.181,248.181l40.03-48.035L256,408.111z"/>
<polygon style="fill:#8CC63F;" points="223.977,408.301 264.005,456.256 223.977,504.21 256,504.21 296.029,456.256 256,408.301 "/>
<polygon style="fill:#D9E021;" points="408.301,288.023 456.256,247.994 504.21,288.023 504.21,256 456.256,215.97 408.301,256 "/>
<polygon style="fill:#009245;" points="288.023,103.893 247.994,55.938 288.023,7.983 256,7.983 215.97,55.938 256,103.893 "/>
<polygon style="fill:#39B54A;" points="103.893,223.977 55.938,264.005 7.983,223.977 7.983,256 55.938,296.029 103.893,256 "/>
<path d="M437.02,74.98C388.667,26.628,324.38,0,256,0S123.333,26.628,74.98,74.98C26.628,123.333,0,187.62,0,256
	s26.628,132.667,74.98,181.02C123.332,485.372,187.62,512,256,512s132.667-26.628,181.02-74.98C485.372,388.668,512,324.38,512,256
	S485.371,123.333,437.02,74.98z M495.753,238.799l-39.606-33.005l-41.017,34.18c-7.945-79.482-74.326-142.004-155.429-143.856
	l-33.553-40.264l33.477-40.173c62.847,0.924,121.795,25.814,166.337,70.356C467.282,127.358,491.697,181.074,495.753,238.799z
	 M256,400.293c-79.563,0-144.293-64.729-144.293-144.293S176.437,111.707,256,111.707S400.293,176.437,400.293,256
	S335.563,400.293,256,400.293z M86.038,86.038c41.32-41.319,95.036-65.735,152.761-69.791l-33.005,39.606l34.18,41.017
	c-79.482,7.945-142.004,74.326-143.856,155.429l-40.264,33.553l-40.173-33.477C16.605,189.529,41.495,130.581,86.038,86.038z
	 M16.247,273.201l39.606,33.005l41.017-34.18c7.945,79.483,74.326,142.004,155.429,143.857l33.553,40.263l-33.477,40.173
	c-62.847-0.924-121.795-25.814-166.337-70.356C44.718,384.642,20.303,330.926,16.247,273.201z M425.962,425.962
	c-41.32,41.319-95.036,65.735-152.761,69.791l33.005-39.606l-34.18-41.017c79.483-7.945,142.004-74.326,143.857-155.429
	l40.263-33.553l40.173,33.477C495.395,322.471,470.505,381.419,425.962,425.962z"/>
<path d="M327.865,264.005c0-37.135-59.122-109.018-65.864-117.092L256,139.724l-6.002,7.189
	c-6.741,8.074-65.864,79.957-65.864,117.092c0,36.839,27.866,67.274,63.622,71.379v24.961h15.637v-24.854
	C299.56,331.779,327.865,301.136,327.865,264.005z M263.394,173.838c6.22,8.179,13.191,17.79,19.887,27.812l-19.887,19.888V173.838z
	 M247.757,220.688l-19.034-19.035c6.389-9.565,13.035-18.764,19.034-26.694V220.688z M247.757,242.802v33.927l-39.755-39.755
	c3.354-6.983,7.509-14.396,12.078-21.849L247.757,242.802z M263.394,243.652l28.531-28.531c4.568,7.453,8.724,14.866,12.077,21.85
	l-40.608,40.608L263.394,243.652L263.394,243.652z M199.772,264.005c0-3.282,0.7-7.075,1.924-11.221l46.059,46.059v20.781
	C220.647,315.623,199.772,292.21,199.772,264.005z M263.394,319.732v-20.04l46.91-46.91c1.224,4.146,1.923,7.941,1.923,11.223
	C312.228,292.502,290.914,316.099,263.394,319.732z"/>
<g>
</g>
<g>
</g>
<g>
</g>
<g>
</g>
<g>
</g>
<g>
</g>
<g>
</g>
<g>
</g>
<g>
</g>
<g>
</g>
<g>
</g>
<g>
</g>
<g>
</g>
<g>
</g>
<g>
</g>
</svg>
