<?xml version="1.0" encoding="iso-8859-1"?>
<!-- Generator: Adobe Illustrator 19.0.0, SVG Export Plug-In . SVG Version: 6.00 Build 0)  -->
<svg version="1.1" id="Layer_1" xmlns="http://www.w3.org/2000/svg" xmlns:xlink="http://www.w3.org/1999/xlink" x="0px" y="0px"
	 viewBox="0 0 512 512" style="enable-background:new 0 0 512 512;" xml:space="preserve">
<polygon style="fill:#0093C4;" points="16.411,73.833 295.315,73.833 295.315,73.834 295.315,358.205 218.753,281.643 
	164.067,336.331 328.128,500.392 492.19,336.331 437.502,281.643 360.94,358.205 360.94,8.208 16.411,8.208 "/>
<polygon style="fill:#00B4D7;" points="16.411,73.833 295.315,73.833 295.315,358.205 218.753,281.643 164.067,336.331 
	328.128,500.392 328.128,41.02 16.411,41.02 "/>
<rect x="189.499" y="380.072" transform="matrix(-0.7071 -0.7071 0.7071 -0.7071 187.5687 854.2523)" style="fill:#FFFFFF;" width="162.414" height="16.415"/>
<path d="M328.128,512L152.459,336.331l66.295-66.295l68.354,68.354V82.04H8.203V0h360.944v338.391l68.354-68.354l66.295,66.295
	L328.128,512z M175.673,336.331l152.454,152.454l152.454-152.454l-43.08-43.08l-84.77,84.77V16.416H24.619v49.209h278.904v312.396
	l-84.77-84.77L175.673,336.331z"/>
<g>
</g>
<g>
</g>
<g>
</g>
<g>
</g>
<g>
</g>
<g>
</g>
<g>
</g>
<g>
</g>
<g>
</g>
<g>
</g>
<g>
</g>
<g>
</g>
<g>
</g>
<g>
</g>
<g>
</g>
</svg>
