<?xml version="1.0" encoding="iso-8859-1"?>
<!-- Generator: Adobe Illustrator 19.0.0, SVG Export Plug-In . SVG Version: 6.00 Build 0)  -->
<svg version="1.1" id="Layer_1" xmlns="http://www.w3.org/2000/svg" xmlns:xlink="http://www.w3.org/1999/xlink" x="0px" y="0px"
	 viewBox="0 0 512 512" style="enable-background:new 0 0 512 512;" xml:space="preserve">
<polygon style="fill:#0093C4;" points="336.331,91.938 281.643,146.626 358.205,223.188 8.208,223.188 8.208,288.812 
	358.205,288.812 281.643,365.374 336.331,420.061 500.392,256 "/>
<polygon style="fill:#00B4D7;" points="336.331,420.061 281.643,365.374 358.205,288.812 8.208,288.812 8.208,256 500.392,256 "/>
<path d="M336.331,431.669l-66.295-66.295l68.354-68.354H0v-82.04h338.391l-68.354-68.354l66.295-66.295L512,256L336.331,431.669z
	 M293.251,365.374l43.08,43.08L488.785,256L336.331,103.546l-43.08,43.08l84.77,84.77H16.416v49.209h361.605L293.251,365.374z"/>
<rect x="380.051" y="232.208" transform="matrix(-0.7071 -0.7071 0.7071 -0.7071 441.1817 809.5731)" style="fill:#FFFFFF;" width="16.415" height="162.414"/>
<g>
</g>
<g>
</g>
<g>
</g>
<g>
</g>
<g>
</g>
<g>
</g>
<g>
</g>
<g>
</g>
<g>
</g>
<g>
</g>
<g>
</g>
<g>
</g>
<g>
</g>
<g>
</g>
<g>
</g>
</svg>
