<?xml version="1.0" encoding="iso-8859-1"?>
<!-- Generator: Adobe Illustrator 19.0.0, SVG Export Plug-In . SVG Version: 6.00 Build 0)  -->
<svg version="1.1" id="Layer_1" xmlns="http://www.w3.org/2000/svg" xmlns:xlink="http://www.w3.org/1999/xlink" x="0px" y="0px"
	 viewBox="0 0 512 512" style="enable-background:new 0 0 512 512;" xml:space="preserve">
<polyline style="fill:#CBBBA0;" points="167.949,504.147 167.949,7.853 344.053,7.853 344.053,504.147 "/>
<rect x="167.945" y="456.12" style="fill:#F9B233;" width="176.101" height="48.029"/>
<g>
	<rect x="199.964" y="480.128" style="fill:#FFFFFF;" width="40.028" height="24.014"/>
	<rect x="272.01" y="480.128" style="fill:#FFFFFF;" width="40.028" height="24.014"/>
</g>
<g>
	<path style="fill:#1D1D1B;" d="M351.906,496.294V0h-191.81v496.294h-16.162V512h224.132v-15.706H351.906z M175.801,463.971h16.162
		v-15.706h-16.162V15.706H336.2v432.56h-16.162v15.706H336.2v32.323h-16.313V472.28h-55.729v24.015h-16.314V472.28h-55.729v24.015
		H175.8v-32.323H175.801z M304.182,496.294h-24.319v-8.309h24.319V496.294z M232.138,496.294H207.82v-8.309h24.318V496.294z"/>
	<rect x="199.964" y="448.267" style="fill:#1D1D1B;" width="112.064" height="15.706"/>
</g>
<g>
	<rect x="183.955" y="32.019" style="fill:#FFFFFF;" width="16.01" height="15.706"/>
	<rect x="215.973" y="32.019" style="fill:#FFFFFF;" width="16.009" height="15.706"/>
</g>
<g>
	<rect x="247.991" y="32.019" style="fill:#1D1D1B;" width="16.01" height="15.706"/>
	<rect x="280.02" y="32.019" style="fill:#1D1D1B;" width="16.009" height="15.706"/>
	<rect x="312.038" y="32.019" style="fill:#1D1D1B;" width="16.009" height="15.706"/>
	<rect x="183.955" y="64.037" style="fill:#1D1D1B;" width="16.01" height="15.706"/>
	<rect x="215.973" y="64.037" style="fill:#1D1D1B;" width="16.009" height="15.706"/>
	<rect x="247.991" y="64.037" style="fill:#1D1D1B;" width="16.01" height="15.706"/>
</g>
<rect x="280.02" y="64.037" style="fill:#FFFFFF;" width="16.009" height="15.706"/>
<g>
	<rect x="312.038" y="64.037" style="fill:#1D1D1B;" width="16.009" height="15.706"/>
	<rect x="183.955" y="96.055" style="fill:#1D1D1B;" width="16.01" height="15.706"/>
	<rect x="215.973" y="96.055" style="fill:#1D1D1B;" width="16.009" height="15.706"/>
</g>
<rect x="247.991" y="96.055" style="fill:#FFFFFF;" width="16.01" height="15.706"/>
<g>
	<rect x="280.02" y="96.055" style="fill:#1D1D1B;" width="16.009" height="15.706"/>
	<rect x="312.038" y="96.055" style="fill:#1D1D1B;" width="16.009" height="15.706"/>
	<rect x="183.955" y="128.073" style="fill:#1D1D1B;" width="16.01" height="15.706"/>
	<rect x="215.973" y="128.073" style="fill:#1D1D1B;" width="16.009" height="15.706"/>
</g>
<rect x="247.991" y="128.073" style="fill:#FFFFFF;" width="16.01" height="15.706"/>
<g>
	<rect x="280.02" y="128.073" style="fill:#1D1D1B;" width="16.009" height="15.706"/>
	<rect x="312.038" y="128.073" style="fill:#1D1D1B;" width="16.009" height="15.706"/>
	<rect x="183.955" y="160.092" style="fill:#1D1D1B;" width="16.01" height="15.706"/>
	<rect x="215.973" y="160.092" style="fill:#1D1D1B;" width="16.009" height="15.706"/>
	<rect x="247.991" y="160.092" style="fill:#1D1D1B;" width="16.01" height="15.706"/>
	<rect x="280.02" y="160.092" style="fill:#1D1D1B;" width="16.009" height="15.706"/>
</g>
<rect x="312.038" y="160.092" style="fill:#FFFFFF;" width="16.009" height="15.706"/>
<g>
	<rect x="183.955" y="192.11" style="fill:#1D1D1B;" width="16.01" height="15.706"/>
	<rect x="215.973" y="192.11" style="fill:#1D1D1B;" width="16.009" height="15.706"/>
	<rect x="247.991" y="192.11" style="fill:#1D1D1B;" width="16.01" height="15.706"/>
</g>
<g>
	<rect x="280.02" y="192.11" style="fill:#FFFFFF;" width="16.009" height="15.706"/>
	<rect x="312.038" y="192.11" style="fill:#FFFFFF;" width="16.009" height="15.706"/>
</g>
<rect x="183.955" y="224.128" style="fill:#1D1D1B;" width="16.01" height="15.706"/>
<rect x="215.973" y="224.128" style="fill:#FFFFFF;" width="16.009" height="15.706"/>
<g>
	<rect x="247.991" y="224.128" style="fill:#1D1D1B;" width="16.01" height="15.706"/>
	<rect x="280.02" y="224.128" style="fill:#1D1D1B;" width="16.009" height="15.706"/>
	<rect x="312.038" y="224.128" style="fill:#1D1D1B;" width="16.009" height="15.706"/>
</g>
<rect x="183.955" y="256.157" style="fill:#FFFFFF;" width="16.01" height="15.706"/>
<g>
	<rect x="215.973" y="256.157" style="fill:#1D1D1B;" width="16.009" height="15.706"/>
	<rect x="247.991" y="256.157" style="fill:#1D1D1B;" width="16.01" height="15.706"/>
	<rect x="280.02" y="256.157" style="fill:#1D1D1B;" width="16.009" height="15.706"/>
	<rect x="312.038" y="256.157" style="fill:#1D1D1B;" width="16.009" height="15.706"/>
</g>
<rect x="183.955" y="288.175" style="fill:#FFFFFF;" width="16.01" height="15.706"/>
<g>
	<rect x="215.973" y="288.175" style="fill:#1D1D1B;" width="16.009" height="15.706"/>
	<rect x="247.991" y="288.175" style="fill:#1D1D1B;" width="16.01" height="15.706"/>
	<rect x="280.02" y="288.175" style="fill:#1D1D1B;" width="16.009" height="15.706"/>
	<rect x="312.038" y="288.175" style="fill:#1D1D1B;" width="16.009" height="15.706"/>
	<rect x="183.955" y="320.194" style="fill:#1D1D1B;" width="16.01" height="15.706"/>
	<rect x="215.973" y="320.194" style="fill:#1D1D1B;" width="16.009" height="15.706"/>
</g>
<rect x="247.991" y="320.194" style="fill:#FFFFFF;" width="16.01" height="15.706"/>
<g>
	<rect x="280.02" y="320.194" style="fill:#1D1D1B;" width="16.009" height="15.706"/>
	<rect x="312.038" y="320.194" style="fill:#1D1D1B;" width="16.009" height="15.706"/>
	<rect x="183.955" y="352.212" style="fill:#1D1D1B;" width="16.01" height="15.706"/>
</g>
<rect x="215.973" y="352.212" style="fill:#FFFFFF;" width="16.009" height="15.706"/>
<g>
	<rect x="247.991" y="352.212" style="fill:#1D1D1B;" width="16.01" height="15.706"/>
	<rect x="280.02" y="352.212" style="fill:#1D1D1B;" width="16.009" height="15.706"/>
	<rect x="312.038" y="352.212" style="fill:#1D1D1B;" width="16.009" height="15.706"/>
	<rect x="183.955" y="384.23" style="fill:#1D1D1B;" width="16.01" height="15.706"/>
	<rect x="215.973" y="384.23" style="fill:#1D1D1B;" width="16.009" height="15.706"/>
</g>
<rect x="247.991" y="384.23" style="fill:#FFFFFF;" width="16.01" height="15.706"/>
<g>
	<rect x="280.02" y="384.23" style="fill:#1D1D1B;" width="16.009" height="15.706"/>
	<rect x="312.038" y="384.23" style="fill:#1D1D1B;" width="16.009" height="15.706"/>
	<rect x="183.955" y="416.249" style="fill:#1D1D1B;" width="16.01" height="15.706"/>
	<rect x="215.973" y="416.249" style="fill:#1D1D1B;" width="16.009" height="15.706"/>
	<rect x="247.991" y="416.249" style="fill:#1D1D1B;" width="16.01" height="15.706"/>
</g>
<g>
	<rect x="280.02" y="416.249" style="fill:#FFFFFF;" width="16.009" height="15.706"/>
	<rect x="312.038" y="416.249" style="fill:#FFFFFF;" width="16.009" height="15.706"/>
</g>
<g>
</g>
<g>
</g>
<g>
</g>
<g>
</g>
<g>
</g>
<g>
</g>
<g>
</g>
<g>
</g>
<g>
</g>
<g>
</g>
<g>
</g>
<g>
</g>
<g>
</g>
<g>
</g>
<g>
</g>
</svg>
