<?xml version="1.0" encoding="iso-8859-1"?>
<!-- Generator: Adobe Illustrator 19.0.0, SVG Export Plug-In . SVG Version: 6.00 Build 0)  -->
<svg version="1.1" id="Layer_1" xmlns="http://www.w3.org/2000/svg" xmlns:xlink="http://www.w3.org/1999/xlink" x="0px" y="0px"
	 viewBox="0 0 512 512" style="enable-background:new 0 0 512 512;" xml:space="preserve">
<polyline style="fill:#CBBBA0;" points="352.06,504.155 352.06,7.845 159.939,7.845 159.939,504.155 "/>
<rect x="159.934" y="472.137" style="fill:#ED7149;" width="192.118" height="32.02"/>
<rect x="239.99" y="456.124" style="fill:#F9B233;" width="32.02" height="48.031"/>
<g>
	<rect x="184.116" y="31.859" style="fill:#FFFFFF;" width="15.689" height="24.015"/>
	<rect x="216.132" y="31.859" style="fill:#FFFFFF;" width="15.689" height="24.015"/>
	<rect x="248.159" y="31.859" style="fill:#FFFFFF;" width="15.689" height="24.015"/>
	<rect x="280.175" y="31.859" style="fill:#FFFFFF;" width="15.689" height="24.015"/>
	<rect x="312.192" y="31.859" style="fill:#FFFFFF;" width="15.689" height="24.015"/>
	<rect x="184.116" y="71.887" style="fill:#FFFFFF;" width="15.689" height="24.015"/>
	<rect x="216.132" y="71.887" style="fill:#FFFFFF;" width="15.689" height="24.015"/>
	<rect x="248.159" y="71.887" style="fill:#FFFFFF;" width="15.689" height="24.015"/>
	<rect x="280.175" y="71.887" style="fill:#FFFFFF;" width="15.689" height="24.015"/>
	<rect x="312.192" y="71.887" style="fill:#FFFFFF;" width="15.689" height="24.015"/>
	<rect x="184.116" y="111.916" style="fill:#FFFFFF;" width="15.689" height="24.015"/>
	<rect x="216.132" y="111.916" style="fill:#FFFFFF;" width="15.689" height="24.015"/>
	<rect x="248.159" y="111.916" style="fill:#FFFFFF;" width="15.689" height="24.015"/>
	<rect x="280.175" y="111.916" style="fill:#FFFFFF;" width="15.689" height="24.015"/>
	<rect x="312.192" y="111.916" style="fill:#FFFFFF;" width="15.689" height="24.015"/>
	<rect x="184.116" y="151.933" style="fill:#FFFFFF;" width="15.689" height="24.015"/>
	<rect x="216.132" y="151.933" style="fill:#FFFFFF;" width="15.689" height="24.015"/>
	<rect x="248.159" y="151.933" style="fill:#FFFFFF;" width="15.689" height="24.015"/>
	<rect x="280.175" y="151.933" style="fill:#FFFFFF;" width="15.689" height="24.015"/>
	<rect x="312.192" y="151.933" style="fill:#FFFFFF;" width="15.689" height="24.015"/>
	<rect x="184.116" y="191.961" style="fill:#FFFFFF;" width="15.689" height="24.015"/>
	<rect x="216.132" y="191.961" style="fill:#FFFFFF;" width="15.689" height="24.015"/>
	<rect x="248.159" y="191.961" style="fill:#FFFFFF;" width="15.689" height="24.015"/>
	<rect x="280.175" y="191.961" style="fill:#FFFFFF;" width="15.689" height="24.015"/>
	<rect x="312.192" y="191.961" style="fill:#FFFFFF;" width="15.689" height="24.015"/>
	<rect x="184.116" y="231.989" style="fill:#FFFFFF;" width="15.689" height="24.015"/>
	<rect x="216.132" y="231.989" style="fill:#FFFFFF;" width="15.689" height="24.015"/>
	<rect x="248.159" y="231.989" style="fill:#FFFFFF;" width="15.689" height="24.015"/>
	<rect x="280.175" y="231.989" style="fill:#FFFFFF;" width="15.689" height="24.015"/>
	<rect x="312.192" y="231.989" style="fill:#FFFFFF;" width="15.689" height="24.015"/>
	<rect x="184.116" y="272.007" style="fill:#FFFFFF;" width="15.689" height="24.015"/>
	<rect x="216.132" y="272.007" style="fill:#FFFFFF;" width="15.689" height="24.015"/>
	<rect x="248.159" y="272.007" style="fill:#FFFFFF;" width="15.689" height="24.015"/>
	<rect x="280.175" y="272.007" style="fill:#FFFFFF;" width="15.689" height="24.015"/>
	<rect x="312.192" y="272.007" style="fill:#FFFFFF;" width="15.689" height="24.015"/>
	<rect x="184.116" y="312.035" style="fill:#FFFFFF;" width="15.689" height="24.015"/>
	<rect x="216.132" y="312.035" style="fill:#FFFFFF;" width="15.689" height="24.015"/>
	<rect x="248.159" y="312.035" style="fill:#FFFFFF;" width="15.689" height="24.015"/>
	<rect x="280.175" y="312.035" style="fill:#FFFFFF;" width="15.689" height="24.015"/>
	<rect x="312.192" y="312.035" style="fill:#FFFFFF;" width="15.689" height="24.015"/>
	<rect x="184.116" y="352.063" style="fill:#FFFFFF;" width="15.689" height="24.015"/>
	<rect x="216.132" y="352.063" style="fill:#FFFFFF;" width="15.689" height="24.015"/>
	<rect x="248.159" y="352.063" style="fill:#FFFFFF;" width="15.689" height="24.015"/>
	<rect x="280.175" y="352.063" style="fill:#FFFFFF;" width="15.689" height="24.015"/>
	<rect x="312.192" y="352.063" style="fill:#FFFFFF;" width="15.689" height="24.015"/>
	<rect x="184.116" y="392.081" style="fill:#FFFFFF;" width="15.689" height="24.015"/>
	<rect x="216.132" y="392.081" style="fill:#FFFFFF;" width="15.689" height="24.015"/>
	<rect x="248.159" y="392.081" style="fill:#FFFFFF;" width="15.689" height="24.015"/>
	<rect x="280.175" y="392.081" style="fill:#FFFFFF;" width="15.689" height="24.015"/>
	<rect x="312.192" y="392.081" style="fill:#FFFFFF;" width="15.689" height="24.015"/>
</g>
<path style="fill:#1D1D1B;" d="M359.904,496.311V0H152.095v496.311h-16.17V512h240.151v-15.689H359.904z M167.784,479.98h56.196
	v-15.689h-56.196V15.689h176.431v448.601H288.02v15.689h56.195v16.331h-64.361v-48.03h-47.71v48.03h-64.361V479.98z
	 M264.165,496.311h-16.331v-32.34h16.331V496.311z"/>
<g>
</g>
<g>
</g>
<g>
</g>
<g>
</g>
<g>
</g>
<g>
</g>
<g>
</g>
<g>
</g>
<g>
</g>
<g>
</g>
<g>
</g>
<g>
</g>
<g>
</g>
<g>
</g>
<g>
</g>
</svg>
