<?xml version="1.0" encoding="iso-8859-1"?>
<!-- Generator: Adobe Illustrator 19.0.0, SVG Export Plug-In . SVG Version: 6.00 Build 0)  -->
<svg version="1.1" id="Layer_1" xmlns="http://www.w3.org/2000/svg" xmlns:xlink="http://www.w3.org/1999/xlink" x="0px" y="0px"
	 viewBox="0 0 512 512" style="enable-background:new 0 0 512 512;" xml:space="preserve">
<g>
	<path style="fill:#338DC9;" d="M250.454,148.008c-9.32,0-16.875-7.555-16.875-16.875c0-9.32,7.555-16.875,16.875-16.875
		l22.048,0.261v33.254L250.454,148.008z"/>
	<path style="fill:#338DC9;" d="M454.439,148.008c9.32,0,16.875-7.555,16.875-16.875c0-9.32-7.555-16.875-16.875-16.875
		l-22.048,0.261v33.254L454.439,148.008z"/>
	<path style="fill:#338DC9;" d="M24.413,84.813c-8.839,0-16.006-7.811-16.006-16.65s7.166-16.65,16.006-16.65h110.872v33.301H24.413
		z"/>
</g>
<path style="fill:#266A97;" d="M256.125,83.263h-39.644l0,0H8.406v295.269c0,4.883,3.959,8.841,8.841,8.841h215.24V136.566
	c0-11.758,9.532-21.291,21.291-21.291h2.718c9.778,0,17.509-8.769,15.756-18.872C270.919,88.706,263.937,83.263,256.125,83.263z"/>
<g>
	<path style="fill:#5CA4D4;" d="M448.566,114.992c-8.839,0-16.006-6.25-16.006-15.089s7.166-15.089,16.006-15.089h55.109v301.789
		h-31.22v-271.61H448.566z"/>
	<path style="fill:#5CA4D4;" d="M462.511,459.399H242.552c-5.558,0-10.064-4.506-10.064-10.063V147.287h240.087v302.049
		C472.575,454.894,468.069,459.399,462.511,459.399z"/>
</g>
<path style="fill:#338DC9;" d="M432.56,459.399H242.079c-5.298,0-9.592-4.295-9.592-9.592V147.286H432.56L432.56,459.399
	L432.56,459.399z"/>
<path style="fill:#266A97;" d="M280.505,459.399h-45.928c-1.154,0-2.089-0.936-2.089-2.09V147.286h48.018v312.113H280.505z"/>
<path d="M448.566,76.488c-13.337,0-23.787,10.263-23.81,23.372h-0.001l-0.17,30.699l15.61,0.085l0.048-8.747
	c2.58,0.919,5.381,1.419,8.323,1.419h8.003c4.522,0,8.2,3.734,8.201,8.324v0.001c-0.001,4.59-3.679,8.324-8.201,8.324H248.494
	c-4.115,0-7.521-3.095-8.104-7.11v-2.255h-0.026c0.507-4.1,3.956-7.285,8.13-7.285h8.003c2.793,0,5.457-0.456,7.928-1.287
	l-0.098,8.481l15.608,0.181l0.331-32.168c-0.702-12.464-10.887-22.037-23.768-22.037H24.413c-4.522,0-8.2-3.735-8.2-8.325
	s3.679-8.325,8.2-8.325H128v7.285h15.61V44.228H24.413c-13.124,0-23.802,10.728-23.81,23.919l0,0L0,371.368
	c0,12.991,10.951,23.559,24.413,23.559h192.043v-15.61H24.413c-4.772,0-8.803-3.64-8.803-7.934l0.558-280.766
	c2.57,0.957,5.348,1.481,8.245,1.481h232.084c4.576,0,8.042,3.218,8.187,7.527l-0.008,0.724c-0.229,4.224-3.662,7.358-8.178,7.358
	h-8.003c-13.13,0-23.811,10.736-23.811,23.935c0,0.711,0.098,311.752,0.098,311.752c0,13.442,10.638,24.378,23.713,24.378h208.075
	c12.776,0,23.171-10.936,23.171-24.362l0.64-311.752l0,0c0-0.005,0-0.01,0-0.017c0-13.199-10.682-23.935-23.811-23.935h-8.003
	c-4.676,0-8.201-3.356-8.201-7.805c0-4.449,3.526-7.805,8.201-7.805h47.824v287.219h-7.285v15.61H512V76.488H448.566z
	 M464.13,443.394c0,4.217-2.891,8.768-7.561,8.768H248.494c-4.317,0-8.104-4.098-8.104-8.768V154.148
	c2.531,0.924,5.259,1.429,8.104,1.429h208.075c2.863,0,5.61-0.511,8.155-1.447L464.13,443.394z"/>
<g>
	<path style="fill:#FBB03B;" d="M120.447,155.29c0,13.26-24.009,40.014-24.009,40.014s-24.009-26.755-24.009-40.014
		c0-13.26,10.749-24.009,24.009-24.009S120.447,142.03,120.447,155.29z"/>
	<path style="fill:#FBB03B;" d="M328.523,355.362c0,13.26-24.009,40.014-24.009,40.014s-24.009-26.755-24.009-40.014
		c0-13.259,10.749-24.009,24.009-24.009C317.774,331.353,328.523,342.102,328.523,355.362z"/>
	<path style="fill:#FBB03B;" d="M424.557,235.318c0,13.26-24.009,40.014-24.009,40.014s-24.009-26.755-24.009-40.014
		c0-13.26,10.749-24.009,24.009-24.009C413.808,211.31,424.557,222.059,424.557,235.318z"/>
</g>
<path d="M96.438,206.99l-5.809-6.474c-4.343-4.838-26.005-29.763-26.005-45.227c0-17.542,14.271-31.814,31.814-31.814
	s31.814,14.271,31.814,31.814c0,15.464-21.662,40.389-26.005,45.227L96.438,206.99z M96.438,139.085
	c-8.935,0-16.204,7.269-16.204,16.204c0,4.18,6.06,15.403,16.204,27.975c10.143-12.571,16.204-23.794,16.204-27.975
	C112.642,146.355,105.373,139.085,96.438,139.085z"/>
<path d="M304.514,407.062l-5.809-6.474c-4.343-4.838-26.005-29.762-26.005-45.227c0-17.542,14.271-31.813,31.814-31.813
	c17.541,0,31.813,14.271,31.813,31.813c0,15.465-21.662,40.388-26.004,45.227L304.514,407.062z M304.514,339.158
	c-8.935,0-16.204,7.268-16.204,16.203c0,4.191,6.059,15.417,16.201,27.979c10.144-12.573,16.206-23.798,16.206-27.979
	C320.718,346.427,313.449,339.158,304.514,339.158z"/>
<path d="M400.548,287.02l-5.809-6.474c-4.343-4.838-26.005-29.763-26.005-45.228c0-17.542,14.271-31.813,31.814-31.813
	c17.541,0,31.813,14.271,31.813,31.813c0,15.465-21.661,40.388-26.004,45.228L400.548,287.02z M400.548,219.115
	c-8.935,0-16.204,7.268-16.204,16.203c0,4.181,6.06,15.404,16.204,27.976c10.143-12.571,16.203-23.794,16.203-27.976
	C416.752,226.383,409.483,219.115,400.548,219.115z"/>
<g>
	<rect x="87.415" y="211.772" style="fill:#FBB03B;" width="17.691" height="15.61"/>
	<rect x="392.325" y="292.943" style="fill:#FBB03B;" width="15.61" height="15.61"/>
	<rect x="295.545" y="411.577" style="fill:#FBB03B;" width="17.691" height="15.61"/>
</g>
<rect x="32.26" y="300.228" style="fill:#FFFFFF;" width="15.61" height="15.61"/>
<rect x="56.195" y="300.228" style="fill:#FBB03B;" width="48.911" height="15.61"/>
<rect x="32.26" y="323.122" style="fill:#FFFFFF;" width="15.61" height="15.61"/>
<rect x="56.195" y="323.122" style="fill:#FBB03B;" width="48.911" height="15.61"/>
<rect x="32.26" y="348.098" style="fill:#FFFFFF;" width="15.61" height="15.61"/>
<rect x="56.195" y="348.098" style="fill:#FBB03B;" width="48.911" height="15.61"/>
<g>
	<path style="fill:#FFFFFF;" d="M216.482,331.156h-48.018c-21.955,0-39.816-17.862-39.816-39.817
		c0-21.955,17.862-39.816,39.816-39.816h12.004c6.728,0,12.203-5.474,12.203-12.203s-5.474-12.203-12.203-12.203h-68.024v-15.61
		h68.024c15.335,0,27.812,12.476,27.812,27.812s-12.476,27.812-27.812,27.812h-12.004c-13.347,0-24.207,10.859-24.207,24.207
		c0,13.347,10.859,24.208,24.207,24.208h48.018V331.156z"/>
	<path style="fill:#FFFFFF;" d="M384.543,307.146h-80.028c-17.542,0-31.814-14.271-31.814-31.813
		c0-17.542,14.271-31.814,31.814-31.814h12.004c6.729,0,12.203-5.474,12.203-12.203s-5.474-12.203-12.203-12.203h-68.024v-15.61
		h68.024c15.335,0,27.812,12.476,27.812,27.812c0,15.335-12.476,27.812-27.812,27.812h-12.004c-8.935,0-16.204,7.269-16.204,16.204
		s7.269,16.203,16.204,16.203h80.028V307.146z"/>
	<path style="fill:#FFFFFF;" d="M408.552,427.19h-88.033v-15.61h88.033c8.935,0,16.203-7.269,16.203-16.204
		c0-8.935-7.268-16.203-16.203-16.203H376.54c-13.129,0-23.81-10.682-23.81-23.811s10.681-23.81,23.81-23.81h10.626
		c3.076,0,5.578-2.502,5.578-5.578v-10.626h15.61v10.626c0,11.683-9.505,21.188-21.188,21.188H376.54c-4.522,0-8.2,3.679-8.2,8.2
		c0,4.523,3.679,8.201,8.2,8.201h32.012c17.541,0,31.813,14.271,31.813,31.813C440.365,412.919,426.093,427.19,408.552,427.19z"/>
</g>
<g>
</g>
<g>
</g>
<g>
</g>
<g>
</g>
<g>
</g>
<g>
</g>
<g>
</g>
<g>
</g>
<g>
</g>
<g>
</g>
<g>
</g>
<g>
</g>
<g>
</g>
<g>
</g>
<g>
</g>
</svg>
