<?xml version="1.0" encoding="iso-8859-1"?>
<!-- Generator: Adobe Illustrator 19.0.0, SVG Export Plug-In . SVG Version: 6.00 Build 0)  -->
<svg version="1.1" id="Layer_1" xmlns="http://www.w3.org/2000/svg" xmlns:xlink="http://www.w3.org/1999/xlink" x="0px" y="0px"
	 viewBox="0 0 512 512" style="enable-background:new 0 0 512 512;" xml:space="preserve">
<path style="fill:#CA9E67;" d="M272.035,279.63v200.433c0,13.284,10.768,24.052,24.052,24.052h-80.173
	c13.283,0,24.052-10.768,24.052-24.052V279.63H272.035z"/>
<path style="fill:#ED7149;" d="M440.398,143.758c0-41.245-32.186-74.884-72.799-77.396C343.06,31.049,302.259,7.886,256,7.886
	s-87.061,23.163-111.599,58.475c-40.613,2.512-72.799,36.151-72.799,77.396s32.186,74.884,72.799,77.396
	c24.538,35.313,65.339,58.475,111.599,58.475s87.061-23.162,111.599-58.475C408.211,218.643,440.398,185.004,440.398,143.758z"/>
<g>
	<circle style="fill:#F9B233;" cx="191.857" cy="135.322" r="32.069"/>
	<path style="fill:#F9B233;" d="M367.599,66.361C343.06,31.049,302.26,7.886,256,7.886c-16.948,0-33.152,3.136-48.104,8.813
		c25.857,9.817,47.947,27.288,63.495,49.662c40.613,2.512,72.799,36.151,72.799,77.396s-32.186,74.884-72.799,77.396
		c-15.548,22.375-37.638,39.845-63.495,49.662c14.952,5.677,31.155,8.813,48.104,8.813c46.26,0,87.061-23.162,111.599-58.475
		c40.613-2.512,72.799-36.151,72.799-77.396S408.211,68.874,367.599,66.361z"/>
</g>
<g>
	<path style="fill:#1D1D1B;" d="M256,287.516c-45.77,0-88.814-21.916-115.896-58.812c-43.134-4.598-76.388-41.196-76.388-84.947
		s33.254-80.349,76.388-84.947C167.186,21.916,210.229,0,256,0s88.814,21.916,115.896,58.812
		c43.134,4.598,76.388,41.196,76.388,84.947s-33.254,80.349-76.388,84.947C344.813,265.6,301.77,287.516,256,287.516z M256,15.772
		c-41.855,0-81.153,20.594-105.123,55.09l-2.179,3.135l-3.81,0.236c-36.672,2.268-65.4,32.807-65.4,69.526
		s28.728,67.257,65.4,69.526l3.81,0.236l2.179,3.135c23.969,34.496,63.268,55.09,105.123,55.09s81.153-20.594,105.123-55.09
		l2.179-3.135l3.81-0.236c36.673-2.268,65.4-32.807,65.4-69.526s-28.727-67.257-65.4-69.526l-3.81-0.236l-2.179-3.135
		C337.152,36.365,297.854,15.772,256,15.772z"/>
	<path style="fill:#1D1D1B;" d="M371.895,58.812C344.813,21.916,301.77,0,256,0s-88.814,21.916-115.896,58.812
		c-43.134,4.598-76.388,41.196-76.388,84.947s33.254,80.349,76.388,84.947c22.299,30.378,55.422,50.588,91.976,56.785v194.573
		c0,8.914-7.252,16.166-16.166,16.166h-56.121V512h192.415v-15.772h-56.121c-8.914,0-16.166-7.252-16.166-16.166V285.489
		c36.553-6.196,69.676-26.406,91.976-56.785c43.134-4.598,76.388-41.196,76.388-84.947S415.03,63.409,371.895,58.812z
		 M264.149,343.9H256v15.772h8.149v120.391c0,5.897,1.613,11.42,4.41,16.166H243.44c2.798-4.746,4.41-10.27,4.41-16.166V423.81
		h8.149v-15.772h-8.149v-88.453h8.149v-15.772h-8.149v-16.535c2.705,0.154,5.421,0.238,8.149,0.238s5.443-0.083,8.149-0.238V343.9
		H264.149z M367.111,213.283l-3.81,0.236l-2.179,3.135c-23.97,34.496-63.268,55.09-105.123,55.09s-81.153-20.594-105.123-55.09
		l-2.179-3.135l-3.81-0.236c-36.672-2.268-65.4-32.807-65.4-69.526s28.728-67.257,65.4-69.526l3.81-0.236l2.179-3.135
		C174.847,36.365,214.145,15.772,256,15.772s81.153,20.594,105.123,55.09l2.179,3.135l3.81,0.236
		c36.673,2.268,65.4,32.807,65.4,69.526S403.784,211.015,367.111,213.283z"/>
	<path style="fill:#1D1D1B;" d="M344.059,127.301h-15.772c0-26.596-21.638-48.235-48.235-48.235V63.294
		C315.345,63.294,344.059,92.008,344.059,127.301z"/>
	<path style="fill:#1D1D1B;" d="M239.965,255.446v-15.772c8.914,0,16.166-7.252,16.166-16.166h15.772
		C271.903,241.119,257.576,255.446,239.965,255.446z"/>
	<path style="fill:#1D1D1B;" d="M167.678,135.318h-15.772c0-22.031,17.924-39.955,39.955-39.955v15.772
		C178.527,111.135,167.678,121.984,167.678,135.318z"/>
</g>
<g>
</g>
<g>
</g>
<g>
</g>
<g>
</g>
<g>
</g>
<g>
</g>
<g>
</g>
<g>
</g>
<g>
</g>
<g>
</g>
<g>
</g>
<g>
</g>
<g>
</g>
<g>
</g>
<g>
</g>
</svg>
