<?xml version="1.0" encoding="iso-8859-1"?>
<!-- Generator: Adobe Illustrator 19.0.0, SVG Export Plug-In . SVG Version: 6.00 Build 0)  -->
<svg version="1.1" id="Layer_1" xmlns="http://www.w3.org/2000/svg" xmlns:xlink="http://www.w3.org/1999/xlink" x="0px" y="0px"
	 viewBox="0 0 512.001 512.001" style="enable-background:new 0 0 512.001 512.001;" xml:space="preserve">
<path style="fill:#60A771;" d="M414.716,139.649l86.527-86.527l-42.366-42.365l-86.525,86.527
	c-33.985-20.925-79.079-16.684-108.532,12.77L20.106,353.768c-16.665,16.664-16.665,43.682-0.002,60.346l77.781,77.782
	c16.664,16.663,43.681,16.663,60.347-0.001l243.714-243.714C431.399,218.727,435.642,173.635,414.716,139.649z"/>
<g>
	
		<rect x="437.207" y="26.593" transform="matrix(-0.7071 -0.7071 0.7071 -0.7071 765.7991 406.8491)" style="fill:#386499;" width="59.908" height="36.459"/>
	<polyline style="fill:#386499;" points="102.819,326.685 75.003,298.87 233.119,140.755 371.245,278.882 213.13,436.997 
		120.007,343.873 	"/>
</g>
<path style="fill:#491E17;" d="M512,53.122L458.877,0l-87.795,87.797c-13.781-7.319-29.194-11.163-44.936-11.163
	c-25.577,0-49.622,9.958-67.706,28.043l-63.076,63.076L64.247,298.87h0.001l-49.519,49.519C5.231,357.886,0.001,370.511,0,383.941
	c0,13.43,5.229,26.055,14.725,35.552l77.781,77.782c9.495,9.495,22.122,14.724,35.551,14.726c0.002,0,0.003,0,0.005,0
	c13.427,0,26.053-5.23,35.55-14.727l49.519-49.519l0,0l168.872-168.872l-0.001-0.001l25.322-25.321
	c15.327-15.327,25.079-35.607,27.459-57.107c2.121-19.142-1.626-38.634-10.582-55.531L512,53.122z M490.486,53.122l-15.024,15.024
	l-31.607-31.607l15.023-15.024L490.486,53.122z M152.853,486.516c-6.623,6.624-15.427,10.271-24.791,10.271
	c-0.001,0-0.003,0-0.003,0c-9.367-0.001-18.173-3.648-24.794-10.27l-77.781-77.782c-6.624-6.623-10.271-15.428-10.271-24.794
	c0-9.366,3.648-18.172,10.272-24.795l49.519-49.519l22.435,22.436l10.758-10.757l-22.436-22.436l147.357-147.358l127.369,127.369
	L213.13,426.24l-87.744-87.745l-10.758,10.757l87.744,87.745L152.853,486.516z M243.875,140.755l15.024-15.023l127.368,127.369
	l-15.024,15.023L243.875,140.755z M397.016,242.333L269.668,114.986c15.156-14.92,35.181-23.139,56.479-23.139
	c14.957,0,29.557,4.121,42.217,11.916l5.118,3.15l59.616-59.618l31.608,31.608l-59.617,59.617l3.15,5.118
	C427.757,175.336,423.115,215.82,397.016,242.333z"/>
<g>
</g>
<g>
</g>
<g>
</g>
<g>
</g>
<g>
</g>
<g>
</g>
<g>
</g>
<g>
</g>
<g>
</g>
<g>
</g>
<g>
</g>
<g>
</g>
<g>
</g>
<g>
</g>
<g>
</g>
</svg>
